<?xml version="1.0" standalone="no"?>
<!DOCTYPE svg PUBLIC "-//W3C//DTD SVG 20010904//EN"
 "http://www.w3.org/TR/2001/REC-SVG-20010904/DTD/svg10.dtd">
<svg version="1.0" xmlns="http://www.w3.org/2000/svg"
 width="512.000000pt" height="512.000000pt" viewBox="0 0 512.000000 512.000000"
 preserveAspectRatio="xMidYMid meet">

<g transform="translate(0.000000,512.000000) scale(0.100000,-0.100000)"
fill="#000000" stroke="none">
<path d="M1109 5106 c-83 -29 -141 -84 -176 -166 -9 -22 -22 -28 -79 -39 -225
-45 -425 -243 -480 -476 -21 -91 -14 -255 14 -335 26 -74 64 -145 105 -199
l35 -45 -39 -48 c-42 -54 -96 -158 -105 -207 -5 -25 -1 -36 25 -62 26 -25 37
-30 59 -24 37 9 55 30 81 95 49 125 167 230 304 271 54 17 87 21 165 17 87 -3
105 -7 174 -40 168 -80 278 -241 278 -407 0 -51 -3 -62 -21 -71 -16 -9 -26 -8
-43 4 -18 11 -24 27 -30 77 -22 217 -231 378 -441 342 -195 -33 -326 -187
-326 -383 -1 -91 24 -163 81 -237 l40 -53 -41 -21 -41 -20 -25 23 c-14 13 -45
64 -69 114 -24 51 -51 95 -60 98 -32 12 -66 5 -91 -20 -20 -20 -24 -31 -19
-57 10 -49 63 -156 105 -212 l37 -50 -37 -49 c-50 -66 -96 -162 -114 -239 -19
-81 -19 -217 0 -292 20 -79 74 -189 118 -244 l35 -44 -38 -51 c-96 -127 -135
-253 -127 -416 4 -108 18 -161 64 -256 78 -160 244 -290 424 -331 l69 -15 0
-413 0 -413 32 -63 c36 -68 99 -120 168 -139 25 -7 519 -9 1492 -8 l1453 3 41
22 c50 27 99 76 127 128 22 40 22 47 25 626 l3 586 160 159 c202 200 232 248
208 337 -9 35 -40 72 -190 222 l-179 181 0 55 c0 62 -17 94 -55 103 -24 6 -25
9 -25 96 0 69 3 90 14 90 7 0 25 9 40 21 23 18 26 27 26 82 l0 61 239 241
c132 132 245 253 250 268 15 40 14 104 -4 141 -8 17 -87 103 -175 191 l-159
159 103 106 c86 89 104 112 114 153 23 91 12 110 -188 312 l-179 180 -3 200
c-3 172 -6 205 -22 235 -26 49 -84 108 -131 133 l-40 22 -1460 2 c-1177 2
-1467 0 -1496 -11z m2703 -176 c17 -33 18 -133 18 -1670 l0 -1635 -24 39 c-13
21 -41 49 -62 62 l-39 24 -502 0 c-330 0 -511 -4 -530 -11 -38 -14 -83 -57
-99 -96 -17 -40 -20 -337 -3 -380 14 -38 57 -83 96 -99 26 -11 130 -14 530
-14 483 0 498 1 540 21 28 13 52 35 68 62 l25 42 0 -147 c0 -112 -4 -157 -16
-187 l-16 -40 -233 -3 c-213 -3 -235 -5 -254 -22 -27 -24 -28 -76 -2 -107 19
-24 20 -24 270 -27 l251 -3 0 -39 0 -40 -648 0 -648 0 -39 40 -39 40 298 0
298 0 29 29 c43 43 38 91 -12 116 -23 12 -93 15 -396 15 l-368 0 -85 86 c-106
107 -137 126 -199 126 -65 0 -92 -16 -196 -121 l-90 -91 -292 0 -293 0 -38 34
-37 34 -3 463 -3 462 28 -18 c82 -52 112 -99 124 -199 17 -132 91 -206 206
-206 91 0 166 53 193 136 30 91 -13 286 -90 409 -85 133 -251 250 -398 278
l-62 12 0 228 0 228 23 -12 c33 -17 87 -70 104 -103 8 -16 19 -61 24 -99 5
-38 19 -86 31 -108 83 -147 315 -124 368 37 18 54 7 174 -24 267 -69 205 -239
363 -448 416 l-73 19 -3 226 -2 227 22 -12 c34 -17 88 -70 105 -103 8 -16 19
-60 24 -98 9 -76 24 -110 66 -152 102 -103 288 -58 334 81 19 57 6 184 -29
280 -74 202 -237 350 -444 402 l-73 19 -3 226 -2 227 28 -15 c36 -18 80 -63
99 -100 8 -16 19 -61 25 -100 11 -80 24 -110 65 -147 65 -61 151 -76 228 -40
105 48 137 152 100 325 -47 220 -244 423 -462 477 -29 7 -53 16 -53 20 0 11
44 37 71 42 13 2 609 4 1324 3 l1300 -1 17 -35z m-2678 -190 c179 -56 318
-225 333 -407 6 -70 -5 -93 -43 -93 -29 0 -40 20 -48 94 -14 122 -102 243
-221 302 -54 26 -70 29 -160 29 -92 0 -106 -3 -167 -32 -116 -55 -193 -156
-219 -286 -21 -103 17 -236 90 -320 l30 -34 -44 -21 -43 -21 -24 32 c-43 58
-60 88 -79 145 -61 178 -13 371 127 501 63 59 141 104 211 120 70 17 187 12
257 -9z m-214 -460 c0 -121 -4 -220 -8 -220 -5 0 -28 13 -50 30 -100 72 -130
188 -77 296 26 54 90 114 122 114 10 0 13 -42 13 -220z m3560 -200 c0 -8 -49
-65 -110 -125 l-110 -110 0 235 0 235 110 -110 c61 -60 110 -117 110 -125z
m130 -730 c0 -15 -328 -350 -342 -350 -5 0 -8 140 -8 312 0 308 0 312 22 335
l22 24 153 -153 c84 -84 153 -160 153 -168z m-3690 60 c0 -121 -2 -220 -5
-220 -16 0 -64 32 -92 62 -68 71 -83 174 -37 266 25 50 91 110 122 112 9 0 12
-50 12 -220z m243 -420 c168 -64 307 -254 307 -419 0 -52 -13 -71 -47 -71 -28
0 -39 20 -47 94 -22 200 -206 349 -413 333 -224 -17 -391 -225 -355 -441 12
-75 53 -164 93 -202 l29 -28 -43 -24 -42 -24 -28 34 c-45 53 -86 150 -99 231
-36 232 105 450 341 529 77 25 222 20 304 -12z m-243 -450 c0 -121 -2 -220 -5
-220 -16 0 -64 32 -92 62 -80 83 -85 213 -13 306 20 25 86 72 103 72 4 0 7
-99 7 -220z m195 -404 c136 -36 250 -132 312 -262 30 -62 37 -91 41 -155 4
-77 4 -79 -22 -90 -40 -19 -62 7 -70 84 -9 89 -53 173 -126 240 -80 74 -147
100 -260 101 -75 1 -93 -3 -152 -31 -87 -41 -151 -101 -189 -178 -109 -221 3
-474 244 -549 13 -4 17 -16 17 -51 0 -53 -10 -56 -91 -25 -144 57 -254 183
-294 335 -63 243 81 498 325 576 67 22 195 24 265 5z m3262 -198 c57 -57 103
-110 103 -118 0 -8 -47 -62 -105 -120 l-105 -105 0 116 c0 64 -3 164 -7 222
-3 60 -2 107 3 107 5 0 55 -46 111 -102z m-3457 -268 c0 -121 -2 -220 -5 -220
-16 0 -64 32 -92 62 -79 82 -84 219 -11 309 16 20 87 69 99 69 5 0 9 -99 9
-220z m2748 -82 c17 -17 17 -259 0 -276 -17 -17 -929 -17 -946 0 -17 17 -17
259 0 276 17 17 929 17 946 0z m-1493 -778 l150 -150 -305 0 -305 0 150 150
c82 83 152 150 155 150 3 0 73 -67 155 -150z m-630 -110 l-40 -41 -80 3 -80 3
-3 38 -3 37 122 0 123 0 -39 -40z m2283 -232 l-3 -43 -1237 -3 -1238 -2 0 45
0 45 1241 0 1240 0 -3 -42z"/>
</g>
</svg>
